<svg width="115" height="117" viewBox="0 0 115 117" fill="none" xmlns="http://www.w3.org/2000/svg">
<path d="M50.2107 61.8237C50.8947 62.0858 51.8123 62.4294 52.5155 62.6281C53.3241 62.8316 54.3291 63.0839 55.5833 63.2326C55.781 63.2521 55.793 63.2521 55.8601 63.2472C55.769 63.0961 54.1075 62.6647 53.5481 62.594C52.2052 62.4319 51.3211 62.2674 50.2107 61.8237Z" fill="#FF0000"/>
<path d="M62.2162 62.2013C62.1228 62.1452 61.7538 61.9807 60.9344 62.1428C60.0468 62.3378 59.9066 62.6717 60.1498 62.829C60.1881 62.8533 60.5475 63.0642 61.4915 62.8753C62.4258 62.6742 62.4761 62.3536 62.2162 62.2013Z" fill="#FF0000"/>
<path d="M64.3329 61.6698C64.2706 61.6405 64.1401 61.6222 63.8633 61.7039C63.4465 61.8379 63.2835 62.0342 63.3027 62.1256C63.3075 62.1426 63.3554 62.2864 63.813 62.1475C64.285 61.9976 64.5042 61.7526 64.3329 61.6698Z" fill="#FF0000"/>
<path d="M43.2148 36.9172C43.1645 36.8343 43.0747 36.7197 42.9285 36.6381C42.1475 36.2017 41.079 35.6046 40.7028 34.2956C40.5339 33.7033 40.5099 32.7649 41.2467 31.5352C40.5818 32.554 40.3291 32.9635 39.9709 33.7082C39.1898 35.423 39.0892 35.6436 38.6436 37.0622L38.543 37.4059C38.3549 38.3467 37.9164 40.5515 41.194 42.2272C43.1741 42.7391 43.9036 38.0299 43.2148 36.9172Z" fill="#FF0000"/>
<path d="M50.049 58.3674C49.6429 57.8726 48.6354 56.9805 47.4195 56.7623C44.2379 56.1931 41.981 55.4168 40.5651 53.312L40.9388 53.9324C42.0684 55.5886 42.1619 55.7251 43.0843 56.7672C43.4053 57.0975 43.8234 57.5484 44.154 57.8665C45.3675 58.8695 46.5786 59.513 49.5027 60.031C51.1522 60.1431 50.4299 58.833 50.049 58.3674Z" fill="#FF0000"/>
<path d="M62.9122 55.8944C62.578 55.7298 62.0161 55.5738 61.2219 55.7579C59.3304 56.2003 56.9753 56.7475 53.4163 56.9779C51.2541 57.2838 51.865 58.6634 52.2483 59.1216C52.9084 59.9126 53.9051 61.1058 61.8987 59.1582C64.1712 58.4087 64.1904 56.522 62.9122 55.8944Z" fill="#FF0000"/>
<path d="M70.1752 52.8976C69.7715 52.744 69.369 52.8756 69.1521 52.9451C68.2297 53.2437 67.3816 53.7239 66.488 54.0883C64.9187 54.7744 64.4755 56.1321 64.6635 56.8792C64.8408 57.5849 65.4769 57.8128 65.9657 57.7957C66.3586 57.7811 66.5047 57.7738 68.8491 56.7183C70.7873 55.7153 71.3779 53.3534 70.1752 52.8976Z" fill="#FF0000"/>
<path d="M73.7162 51.0157C73.4634 50.9548 73.2119 51.1315 72.9663 51.3009C72.1074 51.9444 71.7121 53.0693 71.7073 53.6628C71.7049 53.8554 71.7456 54.7841 72.7303 54.1016C73.9402 53.1875 74.4481 51.19 73.7162 51.0157Z" fill="#FF0000"/>
<path d="M45.7484 38.3711C44.3397 38.3711 43.7515 40.1834 43.6892 41.0584C43.5634 42.8208 43.4628 44.2162 51.6458 43.5873C54.3243 43.0279 53.8404 39.6203 52.3657 38.7355C51.9572 38.4905 51.9572 38.4905 50.346 38.5941C49.9771 38.6209 48.0221 38.7233 45.7484 38.3711Z" fill="#FF0000"/>
<path d="M56.2889 42.5671C56.8292 42.6975 56.8723 42.7073 59.6467 41.9407C61.973 41.1022 61.1536 37.959 59.3771 37.1949C58.8932 36.9865 58.8932 36.9865 56.0912 37.6653C54.734 38.0663 54.4489 39.7396 54.6825 40.7451C54.9305 41.7956 55.666 42.416 56.2889 42.5671Z" fill="#FF0000"/>
<path d="M63.3578 36.2141C62.9146 36.0776 62.6594 36.1897 62.3899 36.3055C61.5082 36.7613 61.6184 37.9618 61.9754 38.6699C62.0545 38.8271 62.7912 40.1884 64.1041 39.6181C65.5416 38.8734 64.8241 36.6601 63.3578 36.2141Z" fill="#FF0000"/>
<path d="M65.5979 36.9194C65.6506 36.9962 66.1226 37.6604 66.7144 37.3192C67.3553 36.8853 66.845 35.7385 66.1106 35.5654C65.877 35.5093 65.7489 35.5849 65.6243 35.6556C65.2122 35.9396 65.3595 36.5648 65.5979 36.9194Z" fill="#FF0000"/>
<path d="M60.0336 45.6726C53.142 47.1985 49.2092 49.6957 47.4794 51.0485C40.7867 56.2794 45.5819 59.5554 46.8314 59.7504C46.8242 59.7211 46.8122 59.6821 46.805 59.6529C46.7475 59.5456 46.6708 59.4055 46.6145 59.3006C46.914 59.3299 47.6651 59.7589 47.949 60.0672C48.554 61.0569 49.474 61.4834 50.2131 61.8259C50.8971 62.0904 51.8195 62.4097 52.5179 62.6303C53.2378 62.8314 53.8859 62.963 54.4729 63.0617C53.6427 62.8923 52.6017 62.5681 51.8291 61.9051C51.2828 61.4395 51.1498 60.9667 51.0588 60.6571C50.9402 60.2415 51.2385 59.8491 51.1211 59.4347C51.03 59.1142 48.2796 57.0923 47.7298 57.8662C47.6627 58.1587 47.5884 58.5548 47.5405 58.8521C47.0877 58.8326 46.3869 58.3646 46.2252 57.9746C46.5283 53.1971 55.2755 49.6713 59.4658 48.7109C60.9739 48.3648 61.4843 48.2478 61.4316 47.0388C61.4088 46.5245 61.0889 45.5861 60.0336 45.6726Z" fill="#FF0000"/>
<path d="M74.6338 42.4432C75.5897 42.9404 75.7455 43.0684 76.3959 43.612C76.4391 43.6485 76.5097 43.6924 76.5672 43.6924C77.1207 43.6924 77.4513 41.1123 76.6175 40.0496C74.4553 38.1069 70.0697 37.3098 69.3881 37.7461C68.3891 38.3835 68.4993 40.8357 70.2267 41.2793C71.3407 41.4414 71.3407 41.4414 71.4713 41.5511C71.9816 41.9874 71.9361 43.534 71.04 43.5194C70.9921 43.512 66.3346 42.754 65.2649 43.5657C63.9424 44.5699 63.928 47.8069 66.0891 48.047C73.2071 47.8703 74.6961 50.4382 74.8434 50.7319C75.1202 51.284 75.3585 51.7618 76.1887 50.1055C76.584 49.3182 77.0991 47.8167 76.8943 46.9124C76.3241 45.6436 75.2879 45.016 74.9848 44.8539C74.2025 44.4371 74.2025 44.4371 74.1343 44.3249C73.7905 43.7814 73.9833 42.2811 74.6338 42.4432Z" fill="#FF0000"/>
<path d="M46.7643 30.0422C48.2509 29.2927 48.778 28.024 48.8331 27.8814C49.0954 27.2001 49.0882 26.0167 47.3764 26.7102C46.0323 27.3646 46.0323 27.3646 45.909 27.3524C45.8251 26.9429 46.7595 26.2934 46.9931 26.1544C49.0691 25.0588 50.4515 24.6127 51.7883 24.1813C52.5969 23.9192 52.9515 23.5865 52.9922 23.4269C52.9922 23.3976 52.9755 23.361 52.9659 23.3318C52.8209 23.2599 52.6508 23.2599 52.0195 23.4439C50.8396 23.8242 50.5425 23.9436 49.5339 24.3872C49.2619 24.5152 48.9026 24.6968 48.633 24.8333C48.0772 25.127 48.0772 25.127 47.0769 25.7449C46.3893 26.1959 43.3131 28.4774 41.5414 31.0867C40.9077 31.9983 40.8717 32.0617 39.9733 33.7107C39.3324 35.0367 39.2677 35.2292 38.646 37.0647L38.5454 37.4084C39.2773 34.8989 42.0421 32.4212 46.7643 30.0422Z" fill="#FF0000"/>
<path d="M51.9129 25.585C51.0708 25.8398 50.6611 26.2834 50.4658 26.6124C49.9172 27.5289 50.6275 28.3711 52.1082 27.9774C53.4762 27.5631 53.7745 26.7099 53.7409 26.3175C53.7002 25.8568 53.1707 25.2499 51.9129 25.585Z" fill="#FF0000"/>
<path d="M56.3356 26.247C57.0208 26.1178 57.1035 25.7425 57.0508 25.5633C56.9825 25.3232 56.5932 25.0295 55.9475 25.1294C55.8265 25.1514 55.5043 25.2111 55.3234 25.4536C55.0107 25.868 55.5091 26.375 56.3356 26.247Z" fill="#FF0000"/>
<path d="M44.8189 51.4177C44.8883 51.3348 45.074 51.1142 45.1363 50.6584C45.3459 49.0947 43.6701 45.9662 42.0804 47.2252C41.1149 48.3062 41.1149 48.3062 41.0909 48.3111C40.4764 48.4329 39.6091 46.6231 40.1901 45.5494C41.9283 43.2788 43.9659 41.9553 46.0779 40.6866C47.4938 39.8359 48.0628 37.9566 47.8963 36.5355C47.8915 36.5038 47.489 33.3789 44.7482 34.5831C40.226 37.307 38.083 39.7652 37.7931 42.5573L37.823 44.1429C37.9165 45.5226 37.9404 45.6481 38.3573 47.7578C38.513 48.9899 39.8906 52.2537 40.5651 53.3116L40.9388 53.9319C41.6995 55.1153 41.8301 55.2738 43.0843 56.7668C43.3933 57.1092 43.8354 57.5358 44.154 57.8661C42.3835 55.9977 42.5811 54.0709 44.8189 51.4177Z" fill="#FF0000"/>
<path d="M34.9391 63.1799C32.4966 64.5644 32.348 64.6497 32.1072 65.4577C31.5262 67.4065 33.4118 69.9573 35.2158 68.9421C37.523 67.4942 37.523 67.4942 37.6416 67.3102C38.1376 66.5461 38.0777 65.5491 37.856 64.8703C37.5015 63.7771 36.3598 62.5278 34.9391 63.1799Z" fill="#FF0000"/>
<path d="M64.3665 28.5627C66.0208 28.5651 66.0603 28.5919 66.252 28.7199C66.325 28.7711 66.8354 29.2586 66.2568 29.3439C63.5674 29.2391 52.4268 29.8436 50.6779 32.7089C49.5698 34.5236 50.5329 37.7971 53.8835 37.1183C60.8793 35.0562 66.8545 34.6004 72.1505 35.724C72.3122 35.757 72.6129 35.8203 72.916 35.6972C74.3906 35.0927 73.2394 30.927 70.2746 29.8862C68.1183 29.3963 68.1183 29.3963 68.0752 28.9429C68.1016 28.91 68.1387 28.8661 68.165 28.8345C68.2034 28.832 68.2537 28.8296 68.292 28.8271C69.4121 29.0258 70.4579 29.5523 71.6043 29.6388C72.1817 29.6827 71.96 29.0794 71.4833 28.4603C71.4713 28.4457 70.2554 26.8796 68.5831 26.1495C66.7826 25.5 62.0473 24.8455 61.2411 25.6048C60.4289 26.3823 61.5418 28.3543 64.3665 28.5627Z" fill="#FF0000"/>
</svg>
