<svg width="70" height="70" viewBox="0 0 70 70" fill="none" xmlns="http://www.w3.org/2000/svg">
<g filter="url(#filter0_d_10:14582)">
<circle cx="34.8001" cy="21.7999" r="16.7999" fill="white"/>
</g>
<path d="M34.8 5C25.5215 5 18 12.5215 18 21.8C18 31.0785 25.5215 38.6 34.8 38.6C44.0785 38.6 51.6 31.0785 51.6 21.8C51.6 12.5215 44.0785 5 34.8 5ZM41.6338 18.762C41.6408 18.9055 41.6425 19.049 41.6425 19.189C41.6425 23.564 38.3158 28.6058 32.2293 28.6058C30.4308 28.6087 28.6697 28.0922 27.1578 27.1183C27.415 27.1498 27.6793 27.162 27.947 27.162C29.4975 27.162 30.9238 26.6353 32.056 25.7463C31.366 25.7327 30.6974 25.5042 30.1434 25.0927C29.5895 24.6811 29.1777 24.107 28.9655 23.4503C29.461 23.5445 29.9715 23.5247 30.4583 23.3925C29.7093 23.2411 29.0358 22.8353 28.552 22.2439C28.0681 21.6526 27.8037 20.9121 27.8035 20.148V20.1078C28.2498 20.3545 28.7608 20.505 29.3033 20.5225C28.6011 20.0551 28.1041 19.3372 27.9138 18.5155C27.7235 17.6938 27.8543 16.8304 28.2795 16.102C29.1107 17.124 30.1472 17.9601 31.322 18.556C32.4968 19.152 33.7836 19.4947 35.0993 19.5618C34.932 18.8518 35.004 18.1065 35.304 17.4416C35.6041 16.7768 36.1153 16.2297 36.7584 15.8855C37.4014 15.5412 38.1402 15.419 38.8598 15.5379C39.5795 15.6568 40.2396 16.0102 40.7378 16.543C41.4783 16.3965 42.1885 16.1248 42.8378 15.7398C42.5909 16.5065 42.0742 17.1576 41.3835 17.572C42.0395 17.493 42.68 17.3166 43.284 17.0488C42.8404 17.7136 42.2815 18.2938 41.6338 18.762Z" fill="black"/>
<defs>
<filter id="filter0_d_10:14582" x="0.00012207" y="0" width="69.5999" height="69.5999" filterUnits="userSpaceOnUse" color-interpolation-filters="sRGB">
<feFlood flood-opacity="0" result="BackgroundImageFix"/>
<feColorMatrix in="SourceAlpha" type="matrix" values="0 0 0 0 0 0 0 0 0 0 0 0 0 0 0 0 0 0 127 0" result="hardAlpha"/>
<feOffset dy="13"/>
<feGaussianBlur stdDeviation="9"/>
<feColorMatrix type="matrix" values="0 0 0 0 0.0658854 0 0 0 0 0.0730469 0 0 0 0 0.1375 0 0 0 0.08 0"/>
<feBlend mode="normal" in2="BackgroundImageFix" result="effect1_dropShadow_10:14582"/>
<feBlend mode="normal" in="SourceGraphic" in2="effect1_dropShadow_10:14582" result="shape"/>
</filter>
</defs>
</svg>
