<svg width="210" height="90" viewBox="0 0 210 90" fill="none" xmlns="http://www.w3.org/2000/svg">
<g clip-path="url(#clip0_1:2)">
<rect width="210" height="90" fill="white"/>
<path d="M54.1022 50.7405L54.6878 53.1995L55.4038 50.8494L59.5166 39.1751H60.9614L65.0222 50.8494L65.725 53.2212L66.3499 50.7405L69.773 39.1751H71.4134L66.5576 55.0164H65.0222L60.727 42.624L60.2455 41.0573L59.777 42.624L55.3777 55.0164H53.8418L49 39.1751H50.64L54.1022 50.7405ZM88.5021 47.9552C88.5021 49.4132 88.1988 50.6935 87.5913 51.7959C86.9927 52.8985 86.133 53.7471 85.0146 54.3418C83.895 54.9367 82.6022 55.2341 81.135 55.2341C78.9226 55.2341 77.1355 54.5739 75.7728 53.2539C74.4111 51.9265 73.7291 50.1385 73.7291 47.89V46.258C73.7291 44.8146 74.0335 43.538 74.641 42.4282C75.2563 41.3112 76.1248 40.4553 77.2444 39.8605C78.3628 39.2585 79.6512 38.9575 81.1095 38.9575C82.5678 38.9575 83.8517 39.2512 84.9624 39.8387C86.0819 40.4263 86.9449 41.2568 87.5524 42.3303C88.16 43.4038 88.4765 44.6477 88.5021 46.0622V47.9552ZM86.9016 46.2363C86.9016 44.3286 86.3851 42.8344 85.3522 41.7536C84.3204 40.6729 82.9054 40.1326 81.1095 40.1326C79.348 40.1326 77.9419 40.6765 76.8923 41.7646C75.8516 42.8453 75.3307 44.3576 75.3307 46.3015V47.9552C75.3307 49.8339 75.8516 51.3244 76.8923 52.4269C77.9341 53.5222 79.348 54.0699 81.135 54.0699C82.9488 54.0699 84.3637 53.5295 85.3789 52.4488C86.394 51.3607 86.9016 49.8484 86.9016 47.9118V46.2363ZM99.6176 48.4231H94.112V55.0164H92.4982V39.1751H98.6546C100.676 39.1751 102.255 39.5849 103.393 40.4045C104.529 41.2241 105.098 42.3702 105.098 43.8426C105.098 44.8581 104.741 45.7538 104.03 46.53C103.318 47.3061 102.364 47.8428 101.167 48.1403L105.904 54.875V55.0164H104.199L99.6176 48.4231ZM94.112 47.2807H99.0189C100.364 47.2807 101.445 46.9615 102.26 46.3233C103.075 45.685 103.484 44.8581 103.484 43.8426C103.484 42.7256 103.058 41.8588 102.208 41.2423C101.357 40.6258 100.164 40.3175 98.628 40.3175H94.112V47.2807ZM111.072 53.8849H120.429V55.0164H109.457V39.1751H111.072V53.8849ZM123.515 55.0164V39.1751H128.811C130.365 39.1751 131.758 39.4725 132.99 40.0672C134.221 40.6547 135.181 41.4998 135.866 42.6023C136.56 43.7048 136.907 44.9597 136.907 46.3668V47.8247C136.907 49.2391 136.565 50.494 135.88 51.5892C135.193 52.6845 134.226 53.5295 132.976 54.1243C131.736 54.719 130.309 55.0164 128.695 55.0164H123.515ZM125.115 40.3175V53.8849H128.707C130.703 53.8849 132.304 53.3336 133.511 52.2311C134.717 51.1214 135.32 49.6235 135.32 47.7377V46.3451C135.32 44.5244 134.725 43.0665 133.536 41.9712C132.348 40.876 130.782 40.3248 128.838 40.3175H125.115Z" fill="#0A429B"/>
<path d="M155.621 50.9611L160.087 38H164.608L157.746 55.234H153.51L146.674 38H151.182L155.621 50.9611ZM170.537 49.1619V55.234H166.476V38H174.164C175.644 38 176.943 38.2367 178.062 38.7102C179.19 39.1837 180.057 39.8583 180.661 40.7342C181.265 41.6023 181.568 42.5926 181.568 43.7052C181.568 45.3939 180.905 46.7275 179.578 47.7059C178.261 48.6766 176.433 49.1619 174.096 49.1619H170.537ZM170.537 46.2856H174.164C175.238 46.2856 176.054 46.0646 176.614 45.6227C177.183 45.1809 177.467 44.5495 177.467 43.7289C177.467 42.8845 177.183 42.202 176.614 41.6811C176.045 41.1603 175.26 40.892 174.259 40.8763H170.537V46.2856ZM200.395 55.234H196.335L188.43 43.8946V55.234H184.37V38H188.43L196.348 49.3631V38H200.395V55.234Z" fill="black"/>
<path d="M54.1022 50.7405L54.6878 53.1995L55.4038 50.8494L59.5166 39.1751H60.9614L65.0222 50.8494L65.725 53.2212L66.3499 50.7405L69.773 39.1751H71.4134L66.5576 55.0164H65.0222L60.727 42.624L60.2455 41.0573L59.777 42.624L55.3777 55.0164H53.8418L49 39.1751H50.64L54.1022 50.7405ZM88.5021 47.9552C88.5021 49.4132 88.1988 50.6935 87.5913 51.7959C86.9927 52.8985 86.133 53.7471 85.0146 54.3418C83.895 54.9367 82.6022 55.2341 81.135 55.2341C78.9226 55.2341 77.1355 54.5739 75.7728 53.2539C74.4111 51.9265 73.7291 50.1385 73.7291 47.89V46.258C73.7291 44.8146 74.0335 43.538 74.641 42.4282C75.2563 41.3112 76.1248 40.4553 77.2444 39.8605C78.3628 39.2585 79.6512 38.9575 81.1095 38.9575C82.5678 38.9575 83.8517 39.2512 84.9624 39.8387C86.0819 40.4263 86.9449 41.2568 87.5524 42.3303C88.16 43.4038 88.4765 44.6477 88.5021 46.0622V47.9552ZM86.9016 46.2363C86.9016 44.3286 86.3851 42.8344 85.3522 41.7536C84.3204 40.6729 82.9054 40.1326 81.1095 40.1326C79.348 40.1326 77.9419 40.6765 76.8923 41.7646C75.8516 42.8453 75.3307 44.3576 75.3307 46.3015V47.9552C75.3307 49.8339 75.8516 51.3244 76.8923 52.4269C77.9341 53.5222 79.348 54.0699 81.135 54.0699C82.9488 54.0699 84.3637 53.5295 85.3789 52.4488C86.394 51.3607 86.9016 49.8484 86.9016 47.9118V46.2363ZM99.6176 48.4231H94.112V55.0164H92.4982V39.1751H98.6546C100.676 39.1751 102.255 39.5849 103.393 40.4045C104.529 41.2241 105.098 42.3702 105.098 43.8426C105.098 44.8581 104.741 45.7538 104.03 46.53C103.318 47.3061 102.364 47.8428 101.167 48.1403L105.904 54.875V55.0164H104.199L99.6176 48.4231ZM94.112 47.2807H99.0189C100.364 47.2807 101.445 46.9615 102.26 46.3233C103.075 45.685 103.484 44.8581 103.484 43.8426C103.484 42.7256 103.058 41.8588 102.208 41.2423C101.357 40.6258 100.164 40.3175 98.628 40.3175H94.112V47.2807ZM111.072 53.8849H120.429V55.0164H109.457V39.1751H111.072V53.8849ZM123.515 55.0164V39.1751H128.811C130.365 39.1751 131.758 39.4725 132.99 40.0672C134.221 40.6547 135.181 41.4998 135.866 42.6023C136.56 43.7048 136.907 44.9597 136.907 46.3668V47.8247C136.907 49.2391 136.565 50.494 135.88 51.5892C135.193 52.6845 134.226 53.5295 132.976 54.1243C131.736 54.719 130.309 55.0164 128.695 55.0164H123.515ZM125.115 40.3175V53.8849H128.707C130.703 53.8849 132.304 53.3336 133.511 52.2311C134.717 51.1214 135.32 49.6235 135.32 47.7377V46.3451C135.32 44.5244 134.725 43.0665 133.536 41.9712C132.348 40.876 130.782 40.3248 128.838 40.3175H125.115Z" fill="#0A429B"/>
<path d="M155.621 50.9611L160.087 38H164.608L157.746 55.234H153.51L146.674 38H151.182L155.621 50.9611ZM170.537 49.1619V55.234H166.476V38H174.164C175.644 38 176.943 38.2367 178.062 38.7102C179.19 39.1837 180.057 39.8583 180.661 40.7342C181.265 41.6023 181.568 42.5926 181.568 43.7052C181.568 45.3939 180.905 46.7275 179.578 47.7059C178.261 48.6766 176.433 49.1619 174.096 49.1619H170.537ZM170.537 46.2856H174.164C175.238 46.2856 176.054 46.0646 176.614 45.6227C177.183 45.1809 177.467 44.5495 177.467 43.7289C177.467 42.8845 177.183 42.202 176.614 41.6811C176.045 41.1603 175.26 40.892 174.259 40.8763H170.537V46.2856ZM200.395 55.234H196.335L188.43 43.8946V55.234H184.37V38H188.43L196.348 49.3631V38H200.395V55.234Z" fill="black"/>
<path d="M54.1022 50.7405L54.6878 53.1995L55.4038 50.8494L59.5166 39.1751H60.9614L65.0222 50.8494L65.725 53.2212L66.3499 50.7405L69.773 39.1751H71.4134L66.5576 55.0164H65.0222L60.727 42.624L60.2455 41.0573L59.777 42.624L55.3777 55.0164H53.8418L49 39.1751H50.64L54.1022 50.7405ZM88.5021 47.9552C88.5021 49.4132 88.1988 50.6935 87.5913 51.7959C86.9927 52.8985 86.133 53.7471 85.0146 54.3418C83.895 54.9367 82.6022 55.2341 81.135 55.2341C78.9226 55.2341 77.1355 54.5739 75.7728 53.2539C74.4111 51.9265 73.7291 50.1385 73.7291 47.89V46.258C73.7291 44.8146 74.0335 43.538 74.641 42.4282C75.2563 41.3112 76.1248 40.4553 77.2444 39.8605C78.3628 39.2585 79.6512 38.9575 81.1095 38.9575C82.5678 38.9575 83.8517 39.2512 84.9624 39.8387C86.0819 40.4263 86.9449 41.2568 87.5524 42.3303C88.16 43.4038 88.4765 44.6477 88.5021 46.0622V47.9552ZM86.9016 46.2363C86.9016 44.3286 86.3851 42.8344 85.3522 41.7536C84.3204 40.6729 82.9054 40.1326 81.1095 40.1326C79.348 40.1326 77.9419 40.6765 76.8923 41.7646C75.8516 42.8453 75.3307 44.3576 75.3307 46.3015V47.9552C75.3307 49.8339 75.8516 51.3244 76.8923 52.4269C77.9341 53.5222 79.348 54.0699 81.135 54.0699C82.9488 54.0699 84.3637 53.5295 85.3789 52.4488C86.394 51.3607 86.9016 49.8484 86.9016 47.9118V46.2363ZM99.6176 48.4231H94.112V55.0164H92.4982V39.1751H98.6546C100.676 39.1751 102.255 39.5849 103.393 40.4045C104.529 41.2241 105.098 42.3702 105.098 43.8426C105.098 44.8581 104.741 45.7538 104.03 46.53C103.318 47.3061 102.364 47.8428 101.167 48.1403L105.904 54.875V55.0164H104.199L99.6176 48.4231ZM94.112 47.2807H99.0189C100.364 47.2807 101.445 46.9615 102.26 46.3233C103.075 45.685 103.484 44.8581 103.484 43.8426C103.484 42.7256 103.058 41.8588 102.208 41.2423C101.357 40.6258 100.164 40.3175 98.628 40.3175H94.112V47.2807ZM111.072 53.8849H120.429V55.0164H109.457V39.1751H111.072V53.8849ZM123.515 55.0164V39.1751H128.811C130.365 39.1751 131.758 39.4725 132.99 40.0672C134.221 40.6547 135.181 41.4998 135.866 42.6023C136.56 43.7048 136.907 44.9597 136.907 46.3668V47.8247C136.907 49.2391 136.565 50.494 135.88 51.5892C135.193 52.6845 134.226 53.5295 132.976 54.1243C131.736 54.719 130.309 55.0164 128.695 55.0164H123.515ZM125.115 40.3175V53.8849H128.707C130.703 53.8849 132.304 53.3336 133.511 52.2311C134.717 51.1214 135.32 49.6235 135.32 47.7377V46.3451C135.32 44.5244 134.725 43.0665 133.536 41.9712C132.348 40.876 130.782 40.3248 128.838 40.3175H125.115Z" fill="#FF0000"/>
<path d="M155.621 50.9611L160.087 38H164.608L157.746 55.234H153.51L146.674 38H151.182L155.621 50.9611ZM170.537 49.1619V55.234H166.476V38H174.164C175.644 38 176.943 38.2367 178.062 38.7102C179.19 39.1837 180.057 39.8583 180.661 40.7342C181.265 41.6023 181.568 42.5926 181.568 43.7052C181.568 45.3939 180.905 46.7275 179.578 47.7059C178.261 48.6766 176.433 49.1619 174.096 49.1619H170.537ZM170.537 46.2856H174.164C175.238 46.2856 176.054 46.0646 176.614 45.6227C177.183 45.1809 177.467 44.5495 177.467 43.7289C177.467 42.8845 177.183 42.202 176.614 41.6811C176.045 41.1603 175.26 40.892 174.259 40.8763H170.537V46.2856ZM200.395 55.234H196.335L188.43 43.8946V55.234H184.37V38H188.43L196.348 49.3631V38H200.395V55.234Z" fill="black"/>
<path d="M20.7558 62.234C21.4949 62.5859 22.4865 63.0473 23.2463 63.3141C24.1201 63.5873 25.2061 63.926 26.5614 64.1257C26.775 64.1519 26.788 64.1519 26.8605 64.1453C26.762 63.9424 24.9666 63.3632 24.3622 63.2683C22.911 63.0506 21.9557 62.8298 20.7558 62.234Z" fill="#0A429B"/>
<path d="M36.4981 62.2762C36.3585 62.2264 36.0661 62.1952 35.4458 62.3343C34.5117 62.5624 34.1464 62.8966 34.1894 63.0522C34.2002 63.0811 34.3075 63.3259 35.333 63.0895C36.3908 62.8343 36.882 62.4172 36.4981 62.2762Z" fill="#0A429B"/>
<path d="M0.91499 38.7929C0.854248 38.7115 0.745806 38.5991 0.569256 38.519C-0.373873 38.0907 -1.66419 37.5046 -2.11848 36.2199C-2.32244 35.6386 -2.35143 34.7176 -1.46167 33.5106C-2.2646 34.5106 -2.56976 34.9125 -3.00232 35.6434C-3.94557 37.3264 -4.06705 37.5429 -4.60515 38.9352L-4.72664 39.2726C-4.95379 40.1959 -5.48332 42.3599 -1.52531 44.0045C0.865839 44.5069 1.74678 39.885 0.91499 38.7929Z" fill="#FF0000"/>
<path d="M10.329 58.8924C9.78216 58.4698 8.42547 57.7078 6.78816 57.5215C2.50387 57.0353 -0.535235 56.3722 -2.44186 54.5745L-1.93865 55.1044C-0.417544 56.519 -0.291639 56.6356 0.950451 57.5257C1.3827 57.8078 1.94571 58.1929 2.39089 58.4646C4.02497 59.3213 5.65582 59.8709 9.59337 60.3134C11.8146 60.4091 10.8419 59.2901 10.329 58.8924Z" fill="#FF0000"/>
<path d="M27.0308 57.5858C26.6193 57.4816 25.9275 57.3829 24.9497 57.4994C22.6208 57.7793 19.7212 58.1255 15.3393 58.2713C12.6772 58.4649 13.4293 59.3378 13.9012 59.6277C14.714 60.1281 15.9411 60.8831 25.783 59.6508C28.5809 59.1766 28.6045 57.9829 27.0308 57.5858Z" fill="#FF0000"/>
<path d="M36.9867 53.6858C36.428 53.5379 35.8709 53.6646 35.5707 53.7316C34.2941 54.0191 33.1203 54.4817 31.8835 54.8326C29.7116 55.4934 29.0982 56.8011 29.3584 57.5207C29.6037 58.2004 30.4841 58.4199 31.1606 58.4034C31.7044 58.3893 31.9066 58.3823 35.1513 57.3657C37.8339 56.3997 38.6513 54.1248 36.9867 53.6858Z" fill="#FF0000"/>
<path d="M41.1587 52.6736C40.8958 52.6039 40.6343 52.8062 40.379 53.0002C39.4859 53.7369 39.0748 55.0248 39.0699 55.7043C39.0674 55.9248 39.1097 56.9881 40.1336 56.2067C41.3916 55.1602 41.9197 52.8732 41.1587 52.6736Z" fill="#FF0000"/>
<path d="M4.05354 40.2128C2.14351 40.2128 1.34598 42.1516 1.26151 43.0878C1.09094 44.9733 0.954542 46.4661 12.0497 45.7933C15.6814 45.1948 15.0253 41.5492 13.0258 40.6026C12.4719 40.3405 12.4719 40.3405 10.2873 40.4513C9.78714 40.48 7.1364 40.5896 4.05354 40.2128Z" fill="#FF0000"/>
<path d="M18.409 43.9732C19.2249 44.1079 19.29 44.1181 23.4797 43.3262C26.9927 42.4601 25.7553 39.2133 23.0726 38.424C22.3418 38.2087 22.3418 38.2087 18.1104 38.9099C16.0609 39.3241 15.6303 41.0526 15.9831 42.0912C16.3576 43.1763 17.4683 43.8172 18.409 43.9732Z" fill="#FF0000"/>
<path d="M27.5391 38.3645C27.0279 38.2195 26.7335 38.3386 26.4227 38.4616C25.4057 38.9457 25.5328 40.2209 25.9446 40.973C26.0358 41.14 26.8856 42.586 28.3999 41.9802C30.058 41.1892 29.2304 38.8382 27.5391 38.3645Z" fill="#FF0000"/>
<path d="M30.8696 39.45C30.948 39.568 31.6502 40.5881 32.5307 40.0641C33.4842 39.3976 32.725 37.6363 31.6324 37.3704C31.2848 37.2843 31.0943 37.4004 30.9089 37.509C30.2958 37.9451 30.5149 38.9054 30.8696 39.45Z" fill="#FF0000"/>
<path d="M23.8729 46.9204C15.1867 48.4322 10.2297 50.9064 8.04946 52.2467C-0.38607 57.4293 5.65784 60.675 7.23272 60.8682C7.22365 60.8392 7.20852 60.8005 7.19944 60.7716C7.12697 60.6653 7.03029 60.5265 6.95933 60.4226C7.33683 60.4516 8.28352 60.8766 8.64135 61.1821C9.4039 62.1626 10.5635 62.5852 11.495 62.9245C12.3572 63.1866 13.5198 63.5029 14.4 63.7215C15.3074 63.9208 16.1243 64.0511 16.8641 64.1489C15.8177 63.9811 14.5057 63.6599 13.5319 63.003C12.8433 62.5417 12.6757 62.0733 12.561 61.7665C12.4115 61.3548 12.7875 60.966 12.6395 60.5554C12.5247 60.2379 9.05804 58.2347 8.36507 59.0014C8.2805 59.2912 8.18685 59.6837 8.12647 59.9782C7.55576 59.9589 6.67247 59.4952 6.46866 59.1088C6.85069 54.3754 17.8757 50.8822 23.1572 49.9307C25.058 49.5878 25.7014 49.4718 25.6349 48.274C25.6062 47.7645 25.203 46.8347 23.8729 46.9204Z" fill="#FF0000"/>
<path d="M43.191 44.1265L43.2318 44.141C44.5226 44.5994 44.7695 44.7319 45.634 45.2251C45.6498 45.2047 45.6698 45.1748 45.6932 45.1318C45.7809 44.9701 45.8571 44.7152 45.8846 44.4088C45.9399 43.7916 45.7859 43.1696 45.4201 42.8273C44.0516 42.0003 41.955 41.3957 40.0483 41.0482C39.0933 40.8741 38.2045 40.7679 37.505 40.7293C37.1546 40.7099 36.8593 40.708 36.6307 40.7213C36.5165 40.728 36.4248 40.7381 36.3545 40.7502C36.3197 40.7562 36.2928 40.7622 36.2729 40.7676C36.2631 40.7703 36.2557 40.7726 36.2504 40.7744C36.2451 40.7762 36.2427 40.7772 36.2428 40.7772L36.2423 40.7774C35.82 40.9614 35.6116 41.4101 35.7223 41.887C35.8275 42.3403 36.2528 42.8752 37.2338 43.0527L37.2484 43.0542C37.9634 43.1252 38.3451 43.1631 38.5655 43.196C38.6796 43.213 38.7779 43.2323 38.8689 43.2635C38.9626 43.2956 39.0308 43.3348 39.0738 43.3596C39.0759 43.3608 39.0779 43.3619 39.0799 43.3631L39.0832 43.365L39.0832 43.365C39.6495 43.6956 39.8503 44.3876 39.7389 44.9483C39.68 45.2444 39.5303 45.5398 39.2668 45.76C38.9998 45.9833 38.6507 46.1003 38.2482 46.0958L38.2247 46.0955L38.2014 46.0931C38.2004 46.093 38.1979 46.0927 38.1941 46.0923C38.073 46.0791 36.5544 45.9138 34.8782 45.8357C34.0125 45.7954 33.1149 45.7788 32.3511 45.817C31.9691 45.836 31.6289 45.8684 31.3473 45.916C31.058 45.965 30.864 46.0247 30.7534 46.082L43.191 44.1265ZM43.191 44.1265L43.1483 44.1193M43.191 44.1265L43.1483 44.1193M43.1483 44.1193C42.7846 44.0574 42.4587 44.1567 42.209 44.3634C41.9731 44.5588 41.8297 44.828 41.7521 45.0867C41.6737 45.3481 41.6517 45.6336 41.6884 45.9009C41.7242 46.1617 41.8222 46.4462 42.025 46.6675C42.0254 46.6679 42.0257 46.6683 42.0261 46.6687C42.0504 46.696 42.1006 46.7527 42.1789 46.8073C42.2515 46.858 42.3312 46.8956 42.4112 46.9296C42.5657 46.9953 42.8366 47.0938 43.3301 47.2733L43.3628 47.2852C43.363 47.2853 43.3631 47.2853 43.3632 47.2854C43.7473 47.4257 44.9545 47.9357 45.6315 48.9109C45.6878 49.1568 45.6333 49.5427 45.4521 50.0184C45.2657 50.5079 44.9841 50.9915 44.7431 51.3193L44.7428 51.3196C44.4752 51.6842 44.2731 51.9062 44.1229 52.0345C44.0409 52.1046 43.9869 52.136 43.9577 52.1498C43.9061 52.1037 43.849 52.0295 43.7481 51.8921L43.748 51.8921M43.1483 44.1193L43.748 51.8921M43.748 51.8921C43.407 51.4278 41.2086 49.0755 31.642 49.2337M43.748 51.8921L31.642 49.2337M31.642 49.2337C31.0161 49.1825 30.5885 48.9889 30.3096 48.7505C30.0284 48.51 29.871 48.2013 29.8204 47.872C29.7168 47.198 30.0623 46.4404 30.7532 46.0821L31.642 49.2337ZM45.5939 45.2659C45.5939 45.2657 45.595 45.2649 45.5975 45.2637C45.5952 45.2654 45.5939 45.266 45.5939 45.2659Z" fill="#FF0000" stroke="#FF0000"/>
<path d="M6.22983 32.7211C8.24 31.9589 8.95274 30.6686 9.02724 30.5236C9.38192 29.8307 9.37219 28.6271 7.0575 29.3324C5.24002 29.998 5.24002 29.998 5.07329 29.9855C4.95984 29.5691 6.22333 28.9085 6.5392 28.7672C9.34636 27.6529 11.2156 27.1992 13.0232 26.7605C14.1166 26.4939 14.5961 26.1555 14.6512 25.9932C14.6512 25.9634 14.6286 25.9262 14.6156 25.8965C14.4195 25.8234 14.1895 25.8234 13.3359 26.0105C11.7404 26.3973 11.3387 26.5187 9.97486 26.9699C9.60707 27.1 9.12122 27.2847 8.75667 27.4236C8.00512 27.7223 8.00512 27.7223 6.65252 28.3507C5.72275 28.8094 1.56313 31.1297 -0.832551 33.7834C-1.68944 34.7105 -1.73812 34.775 -2.95293 36.4521C-3.81955 37.8007 -3.90704 37.9965 -4.7477 39.8632L-4.88373 40.2128C-3.89406 37.6605 -0.155507 35.1406 6.22983 32.7211Z" fill="#FF0000"/>
<path d="M12.7147 27.8733C11.8238 28.156 11.3904 28.6483 11.1838 29.0134C10.6034 30.0304 11.3548 30.9649 12.9213 30.528C14.3685 30.0683 14.6841 29.1215 14.6486 28.6861C14.6055 28.1749 14.0453 27.5015 12.7147 27.8733Z" fill="#FF0000"/>
<path d="M18.5656 27.7493C19.4776 27.6424 19.5877 27.3321 19.5176 27.1839C19.4267 26.9853 18.9085 26.7425 18.0491 26.8251C17.888 26.8433 17.4592 26.8926 17.2184 27.0932C16.8022 27.4359 17.4656 27.8551 18.5656 27.7493Z" fill="#FF0000"/>
<path d="M3.20886 52.3767C3.30085 52.2993 3.54702 52.0931 3.62961 51.667C3.90745 50.2054 1.68599 47.2811 -0.421346 48.4579C-1.70123 49.4683 -1.70123 49.4683 -1.73304 49.4729C-2.54763 49.5868 -3.69734 47.8951 -2.92715 46.8915C-0.622968 44.7691 2.07811 43.532 4.87781 42.3461C6.75475 41.5509 7.50902 39.7942 7.28831 38.4659C7.28195 38.4363 6.74838 35.5153 3.11513 36.6409C-2.87957 39.187 -5.72036 41.4848 -6.10466 44.0947L-6.06502 45.5768C-5.94107 46.8664 -5.90939 46.9837 -5.35675 48.9557C-5.15035 50.1074 -3.32418 53.1582 -2.43005 54.147L-1.93467 54.7268C-0.92627 55.833 -0.753144 55.9812 0.909443 57.3767C1.31906 57.6968 1.90511 58.0955 2.32745 58.4043C-0.0195506 56.6578 0.242394 54.8568 3.20886 52.3767Z" fill="#FF0000"/>
<path d="M7.83457 44.21C4.3676 45.4985 4.15667 45.5779 3.81502 46.3298C2.99033 48.1435 5.66667 50.5174 8.22746 49.5726C11.5024 48.2251 11.5024 48.2251 11.6706 48.0539C12.3746 47.3428 12.2896 46.4149 11.975 45.7832C11.4717 44.7658 9.8513 43.6031 7.83457 44.21Z" fill="#FF0000"/>
<path d="M29.4817 30.6745C31.6473 30.6766 31.699 30.7002 31.9499 30.8131C32.0455 30.8582 32.7136 31.288 31.9562 31.3632C28.4356 31.2708 13.8521 31.8038 11.5627 34.33C10.1122 35.9299 11.3729 38.8159 15.759 38.2175C24.9168 36.3994 32.7386 35.9976 39.6713 36.9882C39.883 37.0173 40.2766 37.0731 40.6734 36.9646C42.6037 36.4316 41.0967 32.759 37.2157 31.8413C34.393 31.4094 34.393 31.4094 34.3366 31.0097C34.3711 30.9807 34.4197 30.942 34.4541 30.9141C34.5044 30.9119 34.5702 30.9098 34.6204 30.9076C36.0866 31.0828 37.4556 31.547 38.9563 31.6232C39.7122 31.6619 39.4219 31.13 38.7979 30.5842C38.7822 30.5713 37.1905 29.1906 35.0014 28.5469C32.6445 27.9743 26.4458 27.3973 25.3904 28.0667C24.3272 28.7522 25.7841 30.4908 29.4817 30.6745Z" fill="#FF0000"/>
</g>
<defs>
<clipPath id="clip0_1:2">
<rect width="210" height="90" fill="white"/>
</clipPath>
</defs>
</svg>
