<svg width="164" height="94" viewBox="0 0 164 94" fill="none" xmlns="http://www.w3.org/2000/svg">
<rect width="164" height="94" fill="white"/>
<path d="M66.5755 42.8981L66.9686 45.026L67.4491 42.9923L70.2096 32.89H71.1793L73.9048 42.9923L74.3765 45.0448L74.7959 42.8981L77.0934 32.89H78.1945L74.9353 46.5983H73.9048L71.022 35.8745L70.6988 34.5187L70.3843 35.8745L67.4316 46.5983H66.4008L63.151 32.89H64.2518L66.5755 42.8981ZM89.664 40.4879C89.664 41.7495 89.4605 42.8574 89.0527 43.8114C88.6509 44.7655 88.074 45.4999 87.3233 46.0145C86.5719 46.5293 85.7042 46.7866 84.7194 46.7866C83.2345 46.7866 82.035 46.2154 81.1204 45.0731C80.2064 43.9244 79.7487 42.3772 79.7487 40.4314V39.0192C79.7487 37.7701 79.953 36.6654 80.3607 35.7051C80.7737 34.7385 81.3567 33.9978 82.1081 33.4831C82.8588 32.9621 83.7235 32.7016 84.7023 32.7016C85.6811 32.7016 86.5428 32.9558 87.2883 33.4642C88.0397 33.9727 88.6189 34.6914 89.0267 35.6203C89.4344 36.5493 89.6469 37.6257 89.664 38.8497V40.4879ZM88.5898 39.0004C88.5898 37.3496 88.2432 36.0565 87.5499 35.1213C86.8574 34.1861 85.9077 33.7185 84.7023 33.7185C83.52 33.7185 82.5762 34.1892 81.8718 35.1308C81.1733 36.0659 80.8237 37.3746 80.8237 39.0568V40.4879C80.8237 42.1136 81.1733 43.4034 81.8718 44.3575C82.571 45.3053 83.52 45.7792 84.7194 45.7792C85.9367 45.7792 86.8865 45.3115 87.5678 44.3764C88.2491 43.4348 88.5898 42.1261 88.5898 40.4503V39.0004ZM97.1245 40.8927H93.4293V46.5983H92.3462V32.89H96.4782C97.8349 32.89 98.895 33.2446 99.6583 33.9538C100.421 34.6631 100.803 35.6548 100.803 36.929C100.803 37.8078 100.563 38.5829 100.086 39.2546C99.6084 39.9261 98.968 40.3906 98.1644 40.648L101.344 46.4759V46.5983H100.2L97.1245 40.8927ZM93.4293 39.9042H96.7227C97.6255 39.9042 98.3508 39.628 98.898 39.0756C99.4451 38.5233 99.7195 37.8078 99.7195 36.929C99.7195 35.9624 99.434 35.2123 98.8629 34.6788C98.2919 34.1453 97.4913 33.8786 96.4603 33.8786H93.4293V39.9042ZM104.812 45.6191H111.093V46.5983H103.729V32.89H104.812V45.6191ZM113.164 46.5983V32.89H116.719C117.762 32.89 118.696 33.1473 119.523 33.662C120.35 34.1704 120.994 34.9016 121.454 35.8557C121.92 36.8098 122.152 37.8957 122.152 39.1133V40.3749C122.152 41.5989 121.923 42.6848 121.463 43.6325C121.002 44.5803 120.353 45.3115 119.514 45.8263C118.682 46.341 117.724 46.5983 116.641 46.5983H113.164ZM114.238 33.8786V45.6191H116.649C117.988 45.6191 119.063 45.1421 119.873 44.188C120.682 43.2277 121.087 41.9315 121.087 40.2996V39.0945C121.087 37.519 120.688 36.2574 119.89 35.3096C119.092 34.3618 118.041 33.8848 116.737 33.8786H114.238Z" fill="#0A429B"/>
<path d="M133.814 43.0579L136.816 32.3188H139.855L135.242 46.5983H132.394L127.798 32.3188H130.829L133.814 43.0579ZM143.841 41.5671V46.5983H141.112V32.3188H146.28C147.275 32.3188 148.149 32.5149 148.901 32.9072C149.659 33.2995 150.242 33.8586 150.648 34.5843C151.054 35.3035 151.258 36.1241 151.258 37.046C151.258 38.4451 150.812 39.5501 149.92 40.3608C149.034 41.165 147.806 41.5671 146.234 41.5671H143.841ZM143.841 39.1839H146.28C147.002 39.1839 147.551 39.0008 147.927 38.6347C148.31 38.2686 148.501 37.7455 148.501 37.0656C148.501 36.366 148.31 35.8004 147.927 35.3688C147.545 34.9373 147.017 34.715 146.344 34.702H143.841V39.1839ZM163.916 46.5983H161.186L155.872 37.2029V46.5983H153.142V32.3188H155.872L161.195 41.7338V32.3188H163.916V46.5983Z" fill="black"/>
<path d="M66.5755 42.8981L66.9686 45.026L67.4491 42.9923L70.2096 32.89H71.1793L73.9048 42.9923L74.3765 45.0448L74.7959 42.8981L77.0934 32.89H78.1945L74.9353 46.5983H73.9048L71.022 35.8745L70.6988 34.5187L70.3843 35.8745L67.4316 46.5983H66.4008L63.151 32.89H64.2518L66.5755 42.8981ZM89.664 40.4879C89.664 41.7495 89.4605 42.8574 89.0527 43.8114C88.6509 44.7655 88.074 45.4999 87.3233 46.0145C86.5719 46.5293 85.7042 46.7866 84.7194 46.7866C83.2345 46.7866 82.035 46.2154 81.1204 45.0731C80.2064 43.9244 79.7487 42.3772 79.7487 40.4314V39.0192C79.7487 37.7701 79.953 36.6654 80.3607 35.7051C80.7737 34.7385 81.3567 33.9978 82.1081 33.4831C82.8588 32.9621 83.7235 32.7016 84.7023 32.7016C85.6811 32.7016 86.5428 32.9558 87.2883 33.4642C88.0397 33.9727 88.6189 34.6914 89.0267 35.6203C89.4344 36.5493 89.6469 37.6257 89.664 38.8497V40.4879ZM88.5898 39.0004C88.5898 37.3496 88.2432 36.0565 87.5499 35.1213C86.8574 34.1861 85.9077 33.7185 84.7023 33.7185C83.52 33.7185 82.5762 34.1892 81.8718 35.1308C81.1733 36.0659 80.8237 37.3746 80.8237 39.0568V40.4879C80.8237 42.1136 81.1733 43.4034 81.8718 44.3575C82.571 45.3053 83.52 45.7792 84.7194 45.7792C85.9367 45.7792 86.8865 45.3115 87.5678 44.3764C88.2491 43.4348 88.5898 42.1261 88.5898 40.4503V39.0004ZM97.1245 40.8927H93.4293V46.5983H92.3462V32.89H96.4782C97.8349 32.89 98.895 33.2446 99.6583 33.9538C100.421 34.6631 100.803 35.6548 100.803 36.929C100.803 37.8078 100.563 38.5829 100.086 39.2546C99.6084 39.9261 98.968 40.3906 98.1644 40.648L101.344 46.4759V46.5983H100.2L97.1245 40.8927ZM93.4293 39.9042H96.7227C97.6255 39.9042 98.3508 39.628 98.898 39.0756C99.4451 38.5233 99.7195 37.8078 99.7195 36.929C99.7195 35.9624 99.434 35.2123 98.8629 34.6788C98.2919 34.1453 97.4913 33.8786 96.4603 33.8786H93.4293V39.9042ZM104.812 45.6191H111.093V46.5983H103.729V32.89H104.812V45.6191ZM113.164 46.5983V32.89H116.719C117.762 32.89 118.696 33.1473 119.523 33.662C120.35 34.1704 120.994 34.9016 121.454 35.8557C121.92 36.8098 122.152 37.8957 122.152 39.1133V40.3749C122.152 41.5989 121.923 42.6848 121.463 43.6325C121.002 44.5803 120.353 45.3115 119.514 45.8263C118.682 46.341 117.724 46.5983 116.641 46.5983H113.164ZM114.238 33.8786V45.6191H116.649C117.988 45.6191 119.063 45.1421 119.873 44.188C120.682 43.2277 121.087 41.9315 121.087 40.2996V39.0945C121.087 37.519 120.688 36.2574 119.89 35.3096C119.092 34.3618 118.041 33.8848 116.737 33.8786H114.238Z" fill="#0A429B"/>
<path d="M133.814 43.0579L136.816 32.3188H139.855L135.242 46.5983H132.394L127.798 32.3188H130.829L133.814 43.0579ZM143.841 41.5671V46.5983H141.112V32.3188H146.28C147.275 32.3188 148.149 32.5149 148.901 32.9072C149.659 33.2995 150.242 33.8586 150.648 34.5843C151.054 35.3035 151.258 36.1241 151.258 37.046C151.258 38.4451 150.812 39.5501 149.92 40.3608C149.034 41.165 147.806 41.5671 146.234 41.5671H143.841ZM143.841 39.1839H146.28C147.002 39.1839 147.551 39.0008 147.927 38.6347C148.31 38.2686 148.501 37.7455 148.501 37.0656C148.501 36.366 148.31 35.8004 147.927 35.3688C147.545 34.9373 147.017 34.715 146.344 34.702H143.841V39.1839ZM163.916 46.5983H161.186L155.872 37.2029V46.5983H153.142V32.3188H155.872L161.195 41.7338V32.3188H163.916V46.5983Z" fill="black"/>
<path d="M66.5755 42.8981L66.9686 45.026L67.4491 42.9923L70.2096 32.89H71.1793L73.9048 42.9923L74.3765 45.0448L74.7959 42.8981L77.0934 32.89H78.1945L74.9353 46.5983H73.9048L71.022 35.8745L70.6988 34.5187L70.3843 35.8745L67.4316 46.5983H66.4008L63.151 32.89H64.2518L66.5755 42.8981ZM89.664 40.4879C89.664 41.7495 89.4605 42.8574 89.0527 43.8114C88.6509 44.7655 88.074 45.4999 87.3233 46.0145C86.5719 46.5293 85.7042 46.7866 84.7194 46.7866C83.2345 46.7866 82.035 46.2154 81.1204 45.0731C80.2064 43.9244 79.7487 42.3772 79.7487 40.4314V39.0192C79.7487 37.7701 79.953 36.6654 80.3607 35.7051C80.7737 34.7385 81.3567 33.9978 82.1081 33.4831C82.8588 32.9621 83.7235 32.7016 84.7023 32.7016C85.6811 32.7016 86.5428 32.9558 87.2883 33.4642C88.0397 33.9727 88.6189 34.6914 89.0267 35.6203C89.4344 36.5493 89.6469 37.6257 89.664 38.8497V40.4879ZM88.5898 39.0004C88.5898 37.3496 88.2432 36.0565 87.5499 35.1213C86.8574 34.1861 85.9077 33.7185 84.7023 33.7185C83.52 33.7185 82.5762 34.1892 81.8718 35.1308C81.1733 36.0659 80.8237 37.3746 80.8237 39.0568V40.4879C80.8237 42.1136 81.1733 43.4034 81.8718 44.3575C82.571 45.3053 83.52 45.7792 84.7194 45.7792C85.9367 45.7792 86.8865 45.3115 87.5678 44.3764C88.2491 43.4348 88.5898 42.1261 88.5898 40.4503V39.0004ZM97.1245 40.8927H93.4293V46.5983H92.3462V32.89H96.4782C97.8349 32.89 98.895 33.2446 99.6583 33.9538C100.421 34.6631 100.803 35.6548 100.803 36.929C100.803 37.8078 100.563 38.5829 100.086 39.2546C99.6084 39.9261 98.968 40.3906 98.1644 40.648L101.344 46.4759V46.5983H100.2L97.1245 40.8927ZM93.4293 39.9042H96.7227C97.6255 39.9042 98.3508 39.628 98.898 39.0756C99.4451 38.5233 99.7195 37.8078 99.7195 36.929C99.7195 35.9624 99.434 35.2123 98.8629 34.6788C98.2919 34.1453 97.4913 33.8786 96.4603 33.8786H93.4293V39.9042ZM104.812 45.6191H111.093V46.5983H103.729V32.89H104.812V45.6191ZM113.164 46.5983V32.89H116.719C117.762 32.89 118.696 33.1473 119.523 33.662C120.35 34.1704 120.994 34.9016 121.454 35.8557C121.92 36.8098 122.152 37.8957 122.152 39.1133V40.3749C122.152 41.5989 121.923 42.6848 121.463 43.6325C121.002 44.5803 120.353 45.3115 119.514 45.8263C118.682 46.341 117.724 46.5983 116.641 46.5983H113.164ZM114.238 33.8786V45.6191H116.649C117.988 45.6191 119.063 45.1421 119.873 44.188C120.682 43.2277 121.087 41.9315 121.087 40.2996V39.0945C121.087 37.519 120.688 36.2574 119.89 35.3096C119.092 34.3618 118.041 33.8848 116.737 33.8786H114.238Z" fill="#FF0000"/>
<path d="M133.814 43.0579L136.816 32.3188H139.855L135.242 46.5983H132.394L127.798 32.3188H130.829L133.814 43.0579ZM143.841 41.5671V46.5983H141.112V32.3188H146.28C147.275 32.3188 148.149 32.5149 148.901 32.9072C149.659 33.2995 150.242 33.8586 150.648 34.5843C151.054 35.3035 151.258 36.1241 151.258 37.046C151.258 38.4451 150.812 39.5501 149.92 40.3608C149.034 41.165 147.806 41.5671 146.234 41.5671H143.841ZM143.841 39.1839H146.28C147.002 39.1839 147.551 39.0008 147.927 38.6347C148.31 38.2686 148.501 37.7455 148.501 37.0656C148.501 36.366 148.31 35.8004 147.927 35.3688C147.545 34.9373 147.017 34.715 146.344 34.702H143.841V39.1839ZM163.916 46.5983H161.186L155.872 37.2029V46.5983H153.142V32.3188H155.872L161.195 41.7338V32.3188H163.916V46.5983Z" fill="black"/>
<path d="M37.4298 49.6703C37.9397 49.8809 38.6237 50.157 39.1479 50.3166C39.7507 50.4801 40.4999 50.6828 41.4348 50.8023C41.5822 50.8179 41.5911 50.8179 41.6412 50.814C41.5733 50.6926 40.3347 50.346 39.9177 50.2892C38.9166 50.159 38.2575 50.0268 37.4298 49.6703Z" fill="#0A429B"/>
<path d="M46.3794 49.9737C46.3097 49.9286 46.0347 49.7965 45.4238 49.9267C44.7622 50.0834 44.6577 50.3516 44.839 50.478C44.8675 50.4975 45.1354 50.667 45.8391 50.5152C46.5356 50.3536 46.5731 50.0961 46.3794 49.9737Z" fill="#0A429B"/>
<path d="M47.9572 49.5467C47.9108 49.5231 47.8135 49.5084 47.6072 49.5741C47.2965 49.6817 47.175 49.8394 47.1893 49.9129C47.1929 49.9265 47.2286 50.0421 47.5697 49.9305C47.9215 49.81 48.0849 49.6132 47.9572 49.5467Z" fill="#0A429B"/>
<path d="M32.2147 29.66C32.1772 29.5934 32.1102 29.5013 32.0012 29.4357C31.419 29.0851 30.6225 28.6054 30.3421 27.5537C30.2162 27.0779 30.1983 26.3239 30.7475 25.336C30.2519 26.1545 30.0635 26.4835 29.7965 27.0818C29.2142 28.4595 29.1392 28.6367 28.8071 29.7765L28.7321 30.0526C28.5918 30.8085 28.265 32.5798 30.7083 33.9261C32.1843 34.3374 32.7281 30.5539 32.2147 29.66Z" fill="#FF0000"/>
<path d="M37.3093 46.8935C37.0065 46.4959 36.2555 45.7792 35.3491 45.6039C32.9773 45.1466 31.2949 44.5229 30.2394 42.8319L30.518 43.3303C31.3601 44.6609 31.4298 44.7706 32.1174 45.6078C32.3567 45.8732 32.6684 46.2355 32.9148 46.491C33.8194 47.2969 34.7222 47.8139 36.902 48.23C38.1316 48.3201 37.5932 47.2675 37.3093 46.8935Z" fill="#FF0000"/>
<path d="M46.8982 44.9066C46.6491 44.7744 46.2302 44.649 45.6382 44.7969C44.2281 45.1524 42.4725 45.592 39.8194 45.7771C38.2076 46.0229 38.663 47.1313 38.9487 47.4994C39.4408 48.1349 40.1838 49.0935 46.1427 47.5288C47.8367 46.9266 47.851 45.4108 46.8982 44.9066Z" fill="#FF0000"/>
<path d="M52.3124 42.4989C52.0115 42.3755 51.7114 42.4812 51.5498 42.5371C50.8621 42.777 50.2299 43.1628 49.5638 43.4556C48.3939 44.0068 48.0636 45.0976 48.2037 45.6978C48.3359 46.2648 48.8101 46.4479 49.1744 46.4341C49.4673 46.4224 49.5762 46.4166 51.3239 45.5685C52.7687 44.7627 53.209 42.8651 52.3124 42.4989Z" fill="#FF0000"/>
<path d="M54.9521 40.987C54.7636 40.9381 54.5761 41.08 54.3931 41.2161C53.7528 41.7331 53.4581 42.6369 53.4545 43.1137C53.4527 43.2684 53.4831 44.0146 54.2171 43.4662C55.1191 42.7318 55.4977 41.127 54.9521 40.987Z" fill="#FF0000"/>
<path d="M34.1034 30.8281C33.0532 30.8281 32.6148 32.2841 32.5683 32.9871C32.4745 34.403 32.3995 35.5241 38.4996 35.0189C40.4963 34.5694 40.1356 31.8317 39.0363 31.1208C38.7317 30.924 38.7317 30.924 37.5307 31.0072C37.2557 31.0288 35.7983 31.111 34.1034 30.8281Z" fill="#FF0000"/>
<path d="M41.9608 34.1992C42.3636 34.304 42.3957 34.3118 44.4639 33.6959C46.1981 33.0223 45.5872 30.497 44.2629 29.8831C43.9022 29.7156 43.9022 29.7156 41.8134 30.261C40.8017 30.5832 40.5892 31.9275 40.7633 32.7354C40.9482 33.5794 41.4965 34.0778 41.9608 34.1992Z" fill="#FF0000"/>
<path d="M47.2304 29.0951C46.9 28.9854 46.7097 29.0755 46.5088 29.1685C45.8516 29.5347 45.9337 30.4992 46.1998 31.0681C46.2588 31.1944 46.808 32.2881 47.7867 31.8299C48.8583 31.2316 48.3234 29.4534 47.2304 29.0951Z" fill="#FF0000"/>
<path d="M48.9003 29.6617C48.9395 29.7234 49.2914 30.2571 49.7326 29.983C50.2103 29.6343 49.8299 28.713 49.2825 28.5739C49.1083 28.5288 49.0128 28.5896 48.9199 28.6464C48.6127 28.8746 48.7225 29.3769 48.9003 29.6617Z" fill="#FF0000"/>
<path d="M44.7523 36.6942C39.6149 37.9202 36.6832 39.9265 35.3937 41.0133C30.4046 45.2159 33.9792 47.8479 34.9107 48.0046C34.9053 47.9811 34.8964 47.9497 34.891 47.9263C34.8481 47.8401 34.791 47.7275 34.749 47.6432C34.9723 47.6668 35.5322 48.0114 35.7438 48.2591C36.1948 49.0543 36.8806 49.3969 37.4316 49.6721C37.9415 49.8846 38.6291 50.1411 39.1497 50.3184C39.6864 50.4799 40.1695 50.5857 40.6071 50.665C39.9882 50.5289 39.2122 50.2684 38.6362 49.7357C38.229 49.3616 38.1298 48.9818 38.062 48.7331C37.9736 48.3992 38.196 48.0839 38.1085 47.751C38.0405 47.4935 35.9902 45.869 35.5804 46.4908C35.5304 46.7258 35.475 47.044 35.4393 47.2829C35.1017 47.2672 34.5793 46.8912 34.4588 46.5779C34.6847 42.7395 41.2054 39.9068 44.3291 39.1352C45.4533 38.8572 45.8337 38.7632 45.7945 37.7918C45.7775 37.3787 45.539 36.6247 44.7523 36.6942Z" fill="#FF0000"/>
<path d="M55.8806 33.6635L55.8261 33.633L55.7658 33.6168C55.6015 33.5727 55.4308 33.5823 55.2735 33.6497C55.1239 33.7138 55.0156 33.8171 54.9402 33.9157C54.7952 34.1052 54.7198 34.3439 54.6807 34.5497C54.6398 34.7652 54.6286 34.9988 54.6475 35.216C54.6654 35.4223 54.7144 35.6608 54.8297 35.8597C54.83 35.8602 54.8302 35.8607 54.8305 35.8612C54.8431 35.8838 54.8767 35.944 54.9321 36.0049C54.9883 36.0669 55.0499 36.1121 55.1027 36.1475C55.1966 36.2105 55.3545 36.3011 55.6154 36.4509L55.6481 36.4697C55.6482 36.4697 55.6483 36.4698 55.6484 36.4699C55.8255 36.572 56.471 36.9919 56.8399 37.8362C56.8805 38.0881 56.8431 38.4632 56.7399 38.891C56.6342 39.329 56.4758 39.7573 56.342 40.0446L56.3418 40.0449C56.2756 40.1872 56.2171 40.3037 56.1658 40.3983C55.9955 40.1114 55.588 39.5809 54.7199 39.1011C53.6733 38.5227 51.9872 38.0343 49.2938 38.101C48.8451 38.031 48.5465 37.6352 48.483 36.9835C48.4518 36.6626 48.4883 36.3239 48.5821 36.0287C48.6773 35.729 48.8194 35.5107 48.9685 35.3886C48.9908 35.3704 49.0557 35.3323 49.1935 35.2955C49.3256 35.2602 49.4945 35.234 49.6953 35.2182C50.0973 35.1865 50.5786 35.1999 51.0535 35.2348C51.971 35.3022 52.8038 35.4453 52.8709 35.4568C52.873 35.4572 52.8744 35.4574 52.875 35.4575L52.9114 35.4636L52.9483 35.4642C53.2963 35.4703 53.5673 35.3028 53.7411 35.0734C53.9024 34.8607 53.9781 34.6023 54.0071 34.3719C54.0367 34.1366 54.0232 33.8879 53.9689 33.6625C53.9171 33.4474 53.8141 33.1965 53.6174 33.0152L53.6174 33.0152L53.6142 33.0123C53.6129 33.0111 53.6114 33.0098 53.6098 33.0083C53.5862 32.9868 53.5287 32.9343 53.4473 32.8902C53.3637 32.845 53.2791 32.8205 53.2042 32.8028C53.0695 32.7711 52.847 32.7363 52.4713 32.6774L52.4598 32.6756C52.0866 32.5603 51.8404 32.2043 51.7708 31.7309C51.7362 31.4956 51.753 31.2634 51.8079 31.0761C51.8587 30.9028 51.931 30.802 51.9896 30.7527C52.0032 30.7495 52.0324 30.7433 52.0828 30.7387C52.1847 30.7293 52.3287 30.7299 52.512 30.7458C52.877 30.7777 53.3515 30.8664 53.8681 31.015C54.8963 31.3108 56.0089 31.8198 56.7327 32.5029C56.8178 32.6339 56.8908 32.8309 56.9375 33.0846C56.987 33.3537 57.0006 33.6524 56.9847 33.9318C56.9757 34.0905 56.9577 34.2349 56.9344 34.3578C56.8478 34.2846 56.7636 34.2174 56.6727 34.1511C56.4687 34.0024 56.2397 33.8648 55.8806 33.6635ZM56.3589 40.7679C56.3589 40.768 56.3584 40.7674 56.3575 40.7661C56.3584 40.7672 56.3589 40.7679 56.3589 40.7679Z" fill="#FF0000" stroke="#FF0000"/>
<path d="M34.8607 24.1365C35.9689 23.5343 36.3618 22.515 36.4029 22.4004C36.5984 21.8531 36.593 20.9023 35.317 21.4595C34.315 21.9852 34.315 21.9852 34.2231 21.9754C34.1605 21.6464 34.8571 21.1246 35.0312 21.0129C36.5788 20.1327 37.6093 19.7743 38.6058 19.4277C39.2086 19.2171 39.4729 18.9498 39.5033 18.8216C39.5033 18.7981 39.4908 18.7687 39.4837 18.7452C39.3756 18.6874 39.2488 18.6874 38.7782 18.8353C37.8986 19.1408 37.6771 19.2367 36.9253 19.5931C36.7225 19.696 36.4547 19.8419 36.2537 19.9515C35.8394 20.1875 35.8394 20.1875 35.0937 20.6839C34.5811 21.0463 32.2879 22.8793 30.9672 24.9756C30.4948 25.708 30.468 25.759 29.7983 27.0838C29.3205 28.1492 29.2723 28.3038 28.8088 29.7785L28.7338 30.0546C29.2794 28.0384 31.3405 26.0478 34.8607 24.1365Z" fill="#FF0000"/>
<path d="M38.6987 20.5555C38.071 20.7602 37.7655 21.1166 37.62 21.3809C37.211 22.1172 37.7405 22.7939 38.8443 22.4776C39.8641 22.1447 40.0864 21.4592 40.0614 21.144C40.0311 20.7738 39.6363 20.2862 38.6987 20.5555Z" fill="#FF0000"/>
<path d="M41.9956 21.0873C42.5064 20.9835 42.5681 20.682 42.5288 20.538C42.4779 20.3451 42.1877 20.1092 41.7063 20.1894C41.6161 20.2071 41.3759 20.2551 41.2411 20.4499C41.008 20.7828 41.3795 21.1902 41.9956 21.0873Z" fill="#FF0000"/>
<path d="M33.4105 41.31C33.4622 41.2433 33.6006 41.0661 33.6471 40.6999C33.8033 39.4436 32.5541 36.9301 31.369 37.9416C30.6493 38.8101 30.6493 38.8101 30.6314 38.8141C30.1733 38.9119 29.5268 37.4579 29.9599 36.5952C31.2556 34.771 32.7746 33.7077 34.349 32.6884C35.4045 32.0049 35.8286 30.4951 35.7045 29.3533C35.7009 29.3278 35.4009 26.8172 33.3577 27.7847C29.9867 29.9731 28.3891 31.9481 28.173 34.1913L28.1953 35.4652C28.265 36.5737 28.2828 36.6745 28.5936 38.3695C28.7097 39.3594 29.7366 41.9816 30.2394 42.8315L30.518 43.3299C31.0851 44.2807 31.1824 44.408 32.1174 45.6075C32.3477 45.8826 32.6773 46.2253 32.9148 46.4907C31.595 44.9896 31.7423 43.4416 33.4105 41.31Z" fill="#FF0000"/>
<path d="M35.5143 34.6213C33.6935 35.7337 33.5827 35.8022 33.4033 36.4514C32.9702 38.0171 34.3757 40.0664 35.7206 39.2508C37.4405 38.0875 37.4405 38.0875 37.5289 37.9397C37.8986 37.3258 37.854 36.5248 37.6888 35.9794C37.4244 35.1011 36.5734 34.0974 35.5143 34.6213Z" fill="#FF0000"/>
<path d="M47.9823 22.9478C49.2155 22.9497 49.245 22.9713 49.3879 23.0741C49.4423 23.1152 49.8228 23.5069 49.3914 23.5754C47.3866 23.4912 39.0818 23.9769 37.7781 26.2789C36.952 27.7369 37.67 30.3669 40.1677 29.8215C45.3828 28.1648 49.837 27.7986 53.7849 28.7013C53.9055 28.7278 54.1296 28.7787 54.3556 28.6798C55.4548 28.1941 54.5966 24.8473 52.3865 24.0111C50.7791 23.6175 50.7791 23.6175 50.747 23.2533C50.7667 23.2268 50.7943 23.1916 50.8139 23.1662C50.8425 23.1642 50.88 23.1622 50.9086 23.1602C51.7436 23.3199 52.5232 23.7429 53.3778 23.8124C53.8082 23.8476 53.6429 23.3629 53.2876 22.8655C53.2786 22.8538 52.3722 21.5956 51.1256 21.009C49.7834 20.4872 46.2534 19.9613 45.6525 20.5714C45.047 21.196 45.8766 22.7804 47.9823 22.9478Z" fill="#FF0000"/>
</svg>
